<svg id="图层_1" data-name="图层 1" xmlns="http://www.w3.org/2000/svg" xmlns:xlink="http://www.w3.org/1999/xlink" viewBox="0 0 80 80"><defs><style>.cls-1{fill:none;}.cls-2{clip-path:url(#clip-path);}.cls-3,.cls-6{fill:#0048ff;}.cls-3,.cls-5{opacity:0.05;}.cls-4{clip-path:url(#clip-path-2);}</style><clipPath id="clip-path"><rect id="SVGID" class="cls-1" width="80" height="80" rx="2.94"/></clipPath><clipPath id="clip-path-2"><rect id="SVGID-2" data-name="SVGID" class="cls-1" x="-96.99" width="80" height="80" rx="2.94"/></clipPath></defs><g class="cls-2"><path class="cls-3" d="M52.54-14.3A39.22,39.22,0,0,0,33,58.85v8.56A6.53,6.53,0,0,0,39.5,74H46a3.26,3.26,0,0,0,3.26,3.26H55.8A3.26,3.26,0,0,0,59.06,74h6.52a6.53,6.53,0,0,0,6.52-6.54V58.85A39.22,39.22,0,0,0,52.54-14.3Zm13,81.71H39.5V64.9H65.58Zm0-7.3H39.5V57.6H65.58Zm3.25-6.92-2,1.15H55.69l0-14.47a19.12,19.12,0,1,0-6.38,0l-.14,14.47h-11l-2-1.15a32.6,32.6,0,1,1,32.58,0ZM52.54,33.81A12.78,12.78,0,1,1,65.28,21,12.78,12.78,0,0,1,52.54,33.81Zm0,0"/></g><g class="cls-4"><g class="cls-5"><path class="cls-6" d="M-29-15.64a1,1,0,0,1,.38.08,43.16,43.16,0,0,1,10.34,6,.73.73,0,0,1,.29.73A21.21,21.21,0,0,0-16,7.89a21.22,21.22,0,0,0,13.17,10,1.05,1.05,0,0,1,.81.86,44.9,44.9,0,0,1,.4,5.91A44.79,44.79,0,0,1-2,30.6a1.06,1.06,0,0,1-.81.85A21.29,21.29,0,0,0-16,41.48a21.21,21.21,0,0,0-2,16.71.73.73,0,0,1-.29.73,43.53,43.53,0,0,1-10.34,6A1,1,0,0,1-29,65a1.1,1.1,0,0,1-.79-.34A21.29,21.29,0,0,0-45.1,58.28a21.28,21.28,0,0,0-15.27,6.39,1.14,1.14,0,0,1-.8.34,1,1,0,0,1-.38-.07,43.47,43.47,0,0,1-10.33-6,.72.72,0,0,1-.3-.73,21.25,21.25,0,0,0-2-16.71,21.28,21.28,0,0,0-13.18-10,1,1,0,0,1-.8-.85,43.36,43.36,0,0,1-.4-5.91,43.25,43.25,0,0,1,.4-5.91,1,1,0,0,1,.8-.86,21.21,21.21,0,0,0,13.18-10,21.24,21.24,0,0,0,2-16.71.72.72,0,0,1,.3-.73,43.1,43.1,0,0,1,10.33-6,1,1,0,0,1,.38-.08,1.18,1.18,0,0,1,.8.34A21.25,21.25,0,0,0-45.1-8.9a21.26,21.26,0,0,0,15.27-6.4,1.14,1.14,0,0,1,.79-.34M-29-22a7.45,7.45,0,0,0-5.3,2.23A15.07,15.07,0,0,1-45.1-15.22a15.07,15.07,0,0,1-10.77-4.51A7.44,7.44,0,0,0-61.17-22a7.31,7.31,0,0,0-2.77.54,49.56,49.56,0,0,0-11.84,6.89A7,7,0,0,0-78.25-7,15,15,0,0,1-79.67,4.73,15,15,0,0,1-89,11.8a7.37,7.37,0,0,0-5.48,6.13,50.94,50.94,0,0,0-.45,6.76,50.28,50.28,0,0,0,.45,6.76A7.36,7.36,0,0,0-89,37.57a15,15,0,0,1,9.29,7.07,15,15,0,0,1,1.42,11.78,7,7,0,0,0,2.47,7.48,49.56,49.56,0,0,0,11.84,6.89,7.32,7.32,0,0,0,2.77.55,7.44,7.44,0,0,0,5.3-2.23A15,15,0,0,1-45.1,64.6a15,15,0,0,1,10.76,4.51A7.45,7.45,0,0,0-29,71.34a7.32,7.32,0,0,0,2.77-.55A49.82,49.82,0,0,0-14.42,63.9,7,7,0,0,0-12,56.42,15.11,15.11,0,0,1-1.25,37.57a7.36,7.36,0,0,0,5.48-6.12,49.32,49.32,0,0,0,.46-6.76,50.16,50.16,0,0,0-.46-6.76A7.37,7.37,0,0,0-1.25,11.8a15.07,15.07,0,0,1-9.29-7.07A15.09,15.09,0,0,1-12-7a7.05,7.05,0,0,0-2.46-7.48,49.82,49.82,0,0,0-11.85-6.89A7.31,7.31,0,0,0-29-22Zm0,0"/></g></g></svg>