<svg id="图层_1" data-name="图层 1" xmlns="http://www.w3.org/2000/svg" xmlns:xlink="http://www.w3.org/1999/xlink" viewBox="0 0 80 80"><defs><style>.cls-1{fill:none;}.cls-2{clip-path:url(#clip-path);}.cls-3{opacity:0.05;}.cls-4{fill:#0048ff;}</style><clipPath id="clip-path"><rect id="SVGID" class="cls-1" width="80" height="80" rx="2.94"/></clipPath></defs><g class="cls-2"><g class="cls-3"><path class="cls-4" d="M68-15.64a1,1,0,0,1,.38.08,43.16,43.16,0,0,1,10.34,6,.73.73,0,0,1,.29.73A21.24,21.24,0,0,0,81,7.89a21.27,21.27,0,0,0,13.18,10,1.07,1.07,0,0,1,.81.86A45,45,0,0,1,95,30.6a1.07,1.07,0,0,1-.81.85A21.42,21.42,0,0,0,79,58.19a.73.73,0,0,1-.29.73,43.53,43.53,0,0,1-10.34,6A1,1,0,0,1,68,65a1.1,1.1,0,0,1-.79-.34,21.45,21.45,0,0,0-30.55,0,1.1,1.1,0,0,1-.79.34,1,1,0,0,1-.38-.07,43.53,43.53,0,0,1-10.34-6,.73.73,0,0,1-.29-.73,21.25,21.25,0,0,0-2-16.71,21.34,21.34,0,0,0-13.18-10,1.07,1.07,0,0,1-.81-.85,45,45,0,0,1,0-11.82,1.07,1.07,0,0,1,.81-.86,21.27,21.27,0,0,0,13.18-10,21.24,21.24,0,0,0,2-16.71.73.73,0,0,1,.29-.73,43.16,43.16,0,0,1,10.34-6,1,1,0,0,1,.38-.08,1.14,1.14,0,0,1,.79.34A21.26,21.26,0,0,0,51.88-8.9a21.27,21.27,0,0,0,15.28-6.4,1.14,1.14,0,0,1,.79-.34M68-22a7.45,7.45,0,0,0-5.3,2.23,15.07,15.07,0,0,1-10.77,4.51,15.07,15.07,0,0,1-10.76-4.51A7.45,7.45,0,0,0,35.82-22a7.31,7.31,0,0,0-2.77.54A49.82,49.82,0,0,0,21.2-14.53,7.05,7.05,0,0,0,18.74-7,15,15,0,0,1,17.32,4.73,15.07,15.07,0,0,1,8,11.8a7.37,7.37,0,0,0-5.48,6.13,51,51,0,0,0-.46,6.76,50.27,50.27,0,0,0,.46,6.76A7.36,7.36,0,0,0,8,37.57,15.11,15.11,0,0,1,18.74,56.42,7,7,0,0,0,21.2,63.9a49.82,49.82,0,0,0,11.85,6.89,7.32,7.32,0,0,0,2.77.55,7.45,7.45,0,0,0,5.3-2.23,15.1,15.1,0,0,1,21.53,0A7.45,7.45,0,0,0,68,71.34a7.32,7.32,0,0,0,2.77-.55A49.82,49.82,0,0,0,82.57,63.9,7,7,0,0,0,85,56.42,15.11,15.11,0,0,1,95.74,37.57a7.36,7.36,0,0,0,5.48-6.12,49.32,49.32,0,0,0,.46-6.76,50.16,50.16,0,0,0-.46-6.76,7.37,7.37,0,0,0-5.48-6.13,15.07,15.07,0,0,1-9.29-7.07A15,15,0,0,1,85-7a7.05,7.05,0,0,0-2.46-7.48,49.82,49.82,0,0,0-11.85-6.89A7.31,7.31,0,0,0,68-22Zm0,0"/><path class="cls-4" d="M51.88,43.56A18.87,18.87,0,1,1,70.75,24.69,18.89,18.89,0,0,1,51.88,43.56Zm0-31.42A12.55,12.55,0,1,0,64.43,24.69,12.56,12.56,0,0,0,51.88,12.14Zm0,0"/></g></g></svg>