<svg id="图层_1" data-name="图层 1" xmlns="http://www.w3.org/2000/svg" xmlns:xlink="http://www.w3.org/1999/xlink" viewBox="0 0 80 80"><defs><style>.cls-1{fill:none;}.cls-2{clip-path:url(#clip-path);}.cls-3{opacity:0.05;}.cls-4{fill:#0048ff;}</style><clipPath id="clip-path"><rect id="SVGID" class="cls-1" width="80" height="80" rx="2.94"/></clipPath></defs><g class="cls-2"><g class="cls-3"><path class="cls-4" d="M55.58,5.37a16.7,16.7,0,1,0,16.7,16.7,16.6,16.6,0,0,0-16.7-16.7Zm0,28.63A11.82,11.82,0,0,1,43.65,22.07a11.93,11.93,0,1,1,23.85,0A11.81,11.81,0,0,1,55.58,34Zm26.24,1a28.24,28.24,0,0,0,3.1-12.64,29.35,29.35,0,0,0-58.69,0A28.37,28.37,0,0,0,29.33,35L17.41,55.23s7.63,1.43,15.26,3.1c5,5.73,10.26,11.45,10.26,11.45l11-18.61h3.81l11,18.61s5-5.72,10.26-11.45c7.63-1.67,15.26-3.1,15.26-3.1ZM42.22,61.19s-3.58-3.57-7.16-6.91c-4.77-1.44-9.78-2.87-9.78-2.87L32.2,39.72A30.11,30.11,0,0,0,48.42,50.46ZM55.58,45.93A23.86,23.86,0,1,1,79.43,22.07,23.93,23.93,0,0,1,55.58,45.93Zm20.51,8.35c-3.34,3.34-7.15,6.91-7.15,6.91L62.49,50.46A28.51,28.51,0,0,0,78.72,39.72l6.92,11.69c.23,0-4.78,1.43-9.55,2.87Zm0,0"/></g></g></svg>