<svg id="图层_1" data-name="图层 1" xmlns="http://www.w3.org/2000/svg" xmlns:xlink="http://www.w3.org/1999/xlink" viewBox="0 0 80 80"><defs><style>.cls-1{fill:none;}.cls-2{clip-path:url(#clip-path);}.cls-3{opacity:0.05;}.cls-4{fill:#0048ff;}</style><clipPath id="clip-path"><rect id="SVGID" class="cls-1" width="80" height="80" rx="4.1"/></clipPath></defs><g class="cls-2"><g class="cls-3"><path class="cls-4" d="M38.51-15.64a1,1,0,0,1,.38.08,43.16,43.16,0,0,1,10.34,6,.73.73,0,0,1,.29.73,21.25,21.25,0,0,0,2,16.71,21.22,21.22,0,0,0,13.17,10,1.05,1.05,0,0,1,.81.86,43.86,43.86,0,0,1,0,11.82,1.06,1.06,0,0,1-.81.85A21.44,21.44,0,0,0,49.52,58.19a.73.73,0,0,1-.29.73,43.53,43.53,0,0,1-10.34,6,1,1,0,0,1-.38.07,1.1,1.1,0,0,1-.79-.34,21.44,21.44,0,0,0-30.54,0,1.14,1.14,0,0,1-.8.34A1,1,0,0,1,6,64.94a43.47,43.47,0,0,1-10.33-6,.72.72,0,0,1-.3-.73,21.21,21.21,0,0,0-2-16.71,21.28,21.28,0,0,0-13.18-10,1,1,0,0,1-.8-.85,43.86,43.86,0,0,1,0-11.82,1,1,0,0,1,.8-.86,21.21,21.21,0,0,0,13.18-10,21.2,21.2,0,0,0,2-16.71.72.72,0,0,1,.3-.73A43.1,43.1,0,0,1,6-15.56a1,1,0,0,1,.38-.08,1.18,1.18,0,0,1,.8.34A21.25,21.25,0,0,0,22.45-8.9a21.26,21.26,0,0,0,15.27-6.4,1.14,1.14,0,0,1,.79-.34m0-6.32a7.45,7.45,0,0,0-5.3,2.23,15.07,15.07,0,0,1-10.76,4.51,15.07,15.07,0,0,1-10.77-4.51A7.44,7.44,0,0,0,6.38-22a7.31,7.31,0,0,0-2.77.54A49.56,49.56,0,0,0-8.23-14.53,7,7,0,0,0-10.7-7,15,15,0,0,1-12.12,4.73a15,15,0,0,1-9.29,7.07,7.37,7.37,0,0,0-5.48,6.13,50.94,50.94,0,0,0-.45,6.76,50.28,50.28,0,0,0,.45,6.76,7.36,7.36,0,0,0,5.48,6.12,15,15,0,0,1,9.29,7.07A15,15,0,0,1-10.7,56.42,7,7,0,0,0-8.23,63.9,49.56,49.56,0,0,0,3.61,70.79a7.32,7.32,0,0,0,2.77.55,7.44,7.44,0,0,0,5.3-2.23,15.1,15.1,0,0,1,21.53,0,7.38,7.38,0,0,0,8.08,1.68A50,50,0,0,0,53.13,63.9a7,7,0,0,0,2.46-7.48A15.11,15.11,0,0,1,66.3,37.57a7.36,7.36,0,0,0,5.48-6.12,49.32,49.32,0,0,0,.46-6.76,50.16,50.16,0,0,0-.46-6.76A7.37,7.37,0,0,0,66.3,11.8,15.07,15.07,0,0,1,57,4.73,15.09,15.09,0,0,1,55.59-7a7.05,7.05,0,0,0-2.46-7.48,50,50,0,0,0-11.84-6.89A7.4,7.4,0,0,0,38.51-22Zm0,0"/><path class="cls-4" d="M22.45,43.56A18.87,18.87,0,1,1,41.32,24.69,18.89,18.89,0,0,1,22.45,43.56Zm0-31.42A12.55,12.55,0,1,0,35,24.69,12.56,12.56,0,0,0,22.45,12.14Zm0,0"/></g></g></svg>