<svg id="图层_1" data-name="图层 1" xmlns="http://www.w3.org/2000/svg" viewBox="0 0 80 80"><defs><style>.cls-1{fill:#0048ff;opacity:0.05;}</style></defs><path class="cls-1" d="M22.94-12A36.74,36.74,0,0,0,4.61,56.49v8a6.13,6.13,0,0,0,6.11,6.13h6.11a3.06,3.06,0,0,0,3.05,3.06H26a3.06,3.06,0,0,0,3.06-3.06h6.11a6.13,6.13,0,0,0,6.11-6.13v-8A36.74,36.74,0,0,0,22.94-12ZM35.16,64.51H10.72V62.16H35.16Zm0-6.84H10.72V55.32H35.16Zm3-6.48-1.84,1.07H25.89l0-13.55a17.92,17.92,0,1,0-6,0l-.14,13.55H9.52L7.68,51.19A30.61,30.61,0,0,1,22.94-5.92,30.61,30.61,0,0,1,38.2,51.19ZM22.94,33a12,12,0,1,1,11.94-12A12,12,0,0,1,22.94,33Zm0,0"/></svg>