<svg id="图层_1" data-name="图层 1" xmlns="http://www.w3.org/2000/svg" xmlns:xlink="http://www.w3.org/1999/xlink" viewBox="0 0 80 80"><defs><style>.cls-1{fill:none;}.cls-2{clip-path:url(#clip-path);}.cls-3{opacity:0.1;}.cls-4{fill:#0048ff;}</style><clipPath id="clip-path"><rect id="SVGID" class="cls-1" width="80" height="80" rx="2.94"/></clipPath></defs><g class="cls-2"><g class="cls-3"><path class="cls-4" d="M46,32.27V20.72a2.84,2.84,0,0,1,2.84-2.84h3.66l-.29-6.14H43.59A3.58,3.58,0,0,0,40,15.32V33.79h4.43A1.52,1.52,0,0,0,46,32.27Z"/><polygon class="cls-4" points="60.81 17.88 60.52 11.74 53.49 11.74 53.78 17.88 60.81 17.88"/><path class="cls-4" d="M68.26,33.79V15.32a3.58,3.58,0,0,0-3.58-3.58H61.84l1.06,22Z"/><path class="cls-4" d="M48.79,19.21a1.52,1.52,0,0,0-1.51,1.51V32.27a2.85,2.85,0,0,1-2.85,2.84H40v1.3A3.59,3.59,0,0,0,43.59,40h9.92l-1-20.79Z"/><polygon class="cls-4" points="53.84 19.21 54.84 40 61.87 40 60.87 19.21 53.84 19.21"/><path class="cls-4" d="M63.2,40h1.48a3.58,3.58,0,0,0,3.58-3.59v-1.3H63Z"/></g></g></svg>