<?xml version="1.0" encoding="utf-8"?>
<!-- Generator: Adobe Illustrator 25.0.1, SVG Export Plug-In . SVG Version: 6.00 Build 0)  -->
<svg version="1.1" id="图层_1" xmlns="http://www.w3.org/2000/svg" xmlns:xlink="http://www.w3.org/1999/xlink" x="0px" y="0px"
	 viewBox="0 0 1000 920" style="enable-background:new 0 0 1000 920;" xml:space="preserve">
<style type="text/css">
	.st0{opacity:0.5;fill:none;stroke:#0048FF;stroke-miterlimit:10;enable-background:new    ;}
	.st1{opacity:0.5;}
	.st2{fill:none;stroke:#0048FF;stroke-miterlimit:10;}
	.st3{fill:#0048FF;}
	.st4{fill:#FAFBFF;}
</style>
<line class="st0" x1="34.4" y1="521.9" x2="34.4" y2="762"/>
<line class="st0" x1="235" y1="521.9" x2="235" y2="647.6"/>
<line class="st0" x1="436.9" y1="521.9" x2="436.9" y2="598.7"/>
<line class="st0" x1="636.2" y1="521.9" x2="636.2" y2="696.4"/>
<line class="st0" x1="836.5" y1="521.9" x2="836.5" y2="880.9"/>
<g class="st1">
	<line class="st2" x1="495.6" y1="115.3" x2="495.6" y2="473.8"/>
</g>
<line class="st0" x1="495.6" y1="263.8" x2="708" y2="263.8"/>
<line class="st0" x1="495.6" y1="263.8" x2="371.8" y2="263.8"/>
<path class="st0" d="M286.2,195.7h80.6c2.8,0,5.1,2.3,5.1,5.1l0,0v125.4c0,2.8-2.3,5.1-5.1,5.1l0,0h-80.6"/>
<path class="st0" d="M705,155h-78.8c-3.9,0-7,3.1-7,7v206.5c0,3.8,3.2,6.9,7,6.9H705"/>
<line class="st0" x1="705" y1="317.1" x2="619.3" y2="317.1"/>
<line class="st0" x1="705" y1="210.5" x2="619.3" y2="210.5"/>
<path class="st0" d="M98.1,473.8v-39c0-2.9,2.3-5.2,5.2-5.2h784.6c2.9,0,5.2,2.3,5.2,5.2v39"/>
<line class="st0" x1="296.8" y1="429.6" x2="296.8" y2="473.8"/>
<line class="st0" x1="694.3" y1="429.6" x2="694.3" y2="473.8"/>
<circle class="st3" cx="495.6" cy="113.7" r="3.6"/>
<path class="st4" d="M495.6,110.1c2,0,3.6,1.6,3.6,3.6s-1.6,3.6-3.6,3.6s-3.6-1.6-3.6-3.6l0,0C492,111.7,493.6,110.1,495.6,110.1
	 M495.6,107.8c-3.3,0-5.9,2.6-5.9,5.9s2.6,5.9,5.9,5.9s5.9-2.6,5.9-5.9S498.8,107.8,495.6,107.8L495.6,107.8z"/>
<circle class="st3" cx="286.2" cy="195.7" r="3.6"/>
<path class="st4" d="M286.2,192.2c2,0,3.6,1.6,3.6,3.6s-1.6,3.6-3.6,3.6s-3.6-1.6-3.6-3.6l0,0C282.6,193.8,284.2,192.2,286.2,192.2
	L286.2,192.2 M286.2,189.8c-3.3,0-5.9,2.6-5.9,5.9c0,3.3,2.6,5.9,5.9,5.9s5.9-2.6,5.9-5.9l0,0C292.1,192.5,289.4,189.8,286.2,189.8z
	"/>
<circle class="st3" cx="286.2" cy="331.3" r="3.6"/>
<path class="st4" d="M286.2,327.7c2,0,3.6,1.6,3.6,3.6s-1.6,3.6-3.6,3.6s-3.6-1.6-3.6-3.6l0,0C282.6,329.3,284.2,327.7,286.2,327.7
	L286.2,327.7 M286.2,325.4c-3.3,0-5.9,2.6-5.9,5.9s2.6,5.9,5.9,5.9s5.9-2.6,5.9-5.9l0,0C292.1,328,289.4,325.4,286.2,325.4z"/>
<circle class="st3" cx="707.3" cy="154.9" r="3.6"/>
<path class="st4" d="M707.3,151.4c2,0,3.6,1.6,3.6,3.6s-1.6,3.6-3.6,3.6s-3.6-1.6-3.6-3.6S705.3,151.4,707.3,151.4L707.3,151.4
	 M707.3,149c-3.3,0-5.9,2.6-5.9,5.9c0,3.3,2.6,5.9,5.9,5.9c3.2,0,5.9-2.6,5.9-5.9C713.2,151.7,710.6,149.1,707.3,149L707.3,149z"/>
<circle class="st3" cx="707.3" cy="210.5" r="3.6"/>
<path class="st4" d="M707.3,206.9c2,0,3.6,1.6,3.6,3.6s-1.6,3.6-3.6,3.6s-3.6-1.6-3.6-3.6S705.3,206.9,707.3,206.9L707.3,206.9
	 M707.3,204.6c-3.3,0-5.9,2.6-5.9,5.9s2.6,5.9,5.9,5.9c3.3,0,5.9-2.6,5.9-5.9l0,0C713.2,207.2,710.6,204.6,707.3,204.6z"/>
<circle class="st3" cx="707.3" cy="263.8" r="3.6"/>
<path class="st4" d="M707.3,260.2c2,0,3.6,1.6,3.6,3.6s-1.6,3.6-3.6,3.6s-3.6-1.6-3.6-3.6l0,0C703.7,261.8,705.3,260.2,707.3,260.2
	L707.3,260.2 M707.3,257.9c-3.3,0-5.9,2.6-5.9,5.9s2.6,5.9,5.9,5.9c3.3,0,5.9-2.6,5.9-5.9l0,0C713.2,260.5,710.6,257.9,707.3,257.9z
	"/>
<circle class="st3" cx="707.3" cy="317.1" r="3.6"/>
<path class="st4" d="M707.3,313.6c2,0,3.6,1.6,3.6,3.6s-1.6,3.6-3.6,3.6s-3.6-1.6-3.6-3.6l0,0C703.7,315.2,705.3,313.6,707.3,313.6
	L707.3,313.6 M707.3,311.2c-3.3,0-5.9,2.6-5.9,5.9s2.6,5.9,5.9,5.9c3.3,0,5.9-2.6,5.9-5.9l0,0C713.2,313.9,710.6,311.2,707.3,311.2z
	"/>
<circle class="st3" cx="707.3" cy="375.5" r="3.6"/>
<path class="st4" d="M707.3,371.9c2,0,3.6,1.6,3.6,3.6s-1.6,3.6-3.6,3.6s-3.6-1.6-3.6-3.6l0,0C703.7,373.5,705.3,371.9,707.3,371.9
	L707.3,371.9 M707.3,369.6c-3.3,0-5.9,2.6-5.9,5.9s2.6,5.9,5.9,5.9c3.3,0,5.9-2.6,5.9-5.9l0,0C713.2,372.2,710.6,369.6,707.3,369.6z
	"/>
<circle class="st3" cx="98.1" cy="473.8" r="3.6"/>
<path class="st4" d="M98.1,470.2c2,0,3.6,1.6,3.6,3.6s-1.6,3.6-3.6,3.6s-3.6-1.6-3.6-3.6l0,0C94.5,471.8,96.1,470.2,98.1,470.2
	L98.1,470.2 M98.1,467.9c-3.3,0-5.9,2.6-5.9,5.9s2.6,5.9,5.9,5.9s5.9-2.6,5.9-5.9l0,0C104,470.5,101.4,467.9,98.1,467.9L98.1,467.9
	L98.1,467.9z"/>
<circle class="st3" cx="296.8" cy="473.8" r="3.6"/>
<path class="st4" d="M296.8,470.2c2,0,3.6,1.6,3.6,3.6s-1.6,3.6-3.6,3.6s-3.6-1.6-3.6-3.6l0,0C293.3,471.8,294.9,470.2,296.8,470.2
	 M296.8,467.9c-3.3,0-5.9,2.6-5.9,5.9s2.6,5.9,5.9,5.9s5.9-2.6,5.9-5.9S300.1,467.9,296.8,467.9L296.8,467.9z"/>
<circle class="st3" cx="495.6" cy="473.8" r="3.6"/>
<path class="st4" d="M495.6,470.2c2,0,3.6,1.6,3.6,3.6s-1.6,3.6-3.6,3.6s-3.6-1.6-3.6-3.6l0,0C492,471.8,493.6,470.2,495.6,470.2
	 M495.6,467.9c-3.3,0-5.9,2.6-5.9,5.9s2.6,5.9,5.9,5.9s5.9-2.6,5.9-5.9S498.8,467.9,495.6,467.9L495.6,467.9z"/>
<circle class="st3" cx="694.3" cy="473.8" r="3.6"/>
<path class="st4" d="M694.3,470.2c2,0,3.6,1.6,3.6,3.6s-1.6,3.6-3.6,3.6s-3.6-1.6-3.6-3.6l0,0C690.7,471.8,692.3,470.2,694.3,470.2
	 M694.3,467.9c-3.3,0-5.9,2.6-5.9,5.9s2.6,5.9,5.9,5.9c3.3,0,5.9-2.6,5.9-5.9l0,0C700.2,470.5,697.6,467.9,694.3,467.9z"/>
<circle class="st3" cx="893" cy="473.8" r="3.6"/>
<path class="st4" d="M893,470.2c2,0,3.6,1.6,3.6,3.6s-1.6,3.6-3.6,3.6s-3.6-1.6-3.6-3.6l0,0C889.4,471.8,891,470.2,893,470.2
	 M893,467.9c-3.3,0-5.9,2.6-5.9,5.9s2.6,5.9,5.9,5.9c3.3,0,5.9-2.6,5.9-5.9l0,0C898.9,470.5,896.3,467.9,893,467.9z"/>
</svg>
