<svg id="图层_1" data-name="图层 1" xmlns="http://www.w3.org/2000/svg" viewBox="0 0 280.65 4740.92"><defs><style>.cls-1{fill:none;stroke:#0048ff;stroke-miterlimit:10;stroke-width:2px;}.cls-2{fill:#0048ff;}.cls-3{fill:#fafbff;}</style></defs><line class="cls-1" x1="133.43" y1="2060.4" x2="43.98" y2="2060.4"/><line class="cls-1" x1="15.19" y1="24.38" x2="15.19" y2="2542.52"/><line class="cls-1" x1="15.19" y1="231.16" x2="46.33" y2="231.16"/><path class="cls-1" d="M71.76,165.62H52.93a6.61,6.61,0,0,0-6.6,6.61v113.5a6.6,6.6,0,0,0,6.6,6.6H71.76"/><line class="cls-1" x1="15.19" y1="751.06" x2="72.77" y2="751.06"/><path class="cls-1" d="M72.77,501.22H51.43A7.46,7.46,0,0,0,44,508.67V986.93a7.45,7.45,0,0,0,7.45,7.45H72.77"/><line class="cls-1" x1="72.77" y1="629.41" x2="43.98" y2="629.41"/><line class="cls-1" x1="72.77" y1="872.53" x2="43.98" y2="872.53"/><path class="cls-1" d="M193.08,1258.85v547.4a12.85,12.85,0,0,0,12.85,12.85h74.72"/><line class="cls-1" x1="280.65" y1="1341.79" x2="193.08" y2="1341.79"/><line class="cls-1" x1="280.65" y1="1461.12" x2="193.08" y2="1461.12"/><line class="cls-1" x1="280.65" y1="1580.45" x2="193.08" y2="1580.45"/><line class="cls-1" x1="280.65" y1="1699.77" x2="193.08" y2="1699.77"/><path class="cls-1" d="M193.08,2109.44v308.4a12.85,12.85,0,0,0,12.85,12.85h74.72"/><line class="cls-1" x1="280.65" y1="2192.38" x2="193.08" y2="2192.38"/><line class="cls-1" x1="280.65" y1="2311.71" x2="193.08" y2="2311.71"/><path class="cls-1" d="M193.08,2721v186.55a12.86,12.86,0,0,0,12.85,12.86h74.72"/><line class="cls-1" x1="280.65" y1="2803.98" x2="193.08" y2="2803.98"/><path class="cls-1" d="M193.08,3232.16V3658.3a12.85,12.85,0,0,0,12.85,12.85h74.72"/><line class="cls-1" x1="280.65" y1="3315.1" x2="193.08" y2="3315.1"/><line class="cls-1" x1="280.65" y1="3433.89" x2="193.08" y2="3433.89"/><line class="cls-1" x1="280.65" y1="3553.22" x2="193.08" y2="3553.22"/><path class="cls-1" d="M193.08,3934.58v792.48a12.86,12.86,0,0,0,12.85,12.86h74.72"/><line class="cls-1" x1="280.65" y1="4017.52" x2="193.08" y2="4017.52"/><line class="cls-1" x1="280.65" y1="4136.85" x2="193.08" y2="4136.85"/><line class="cls-1" x1="280.65" y1="4256.18" x2="193.08" y2="4256.18"/><line class="cls-1" x1="280.65" y1="4375.51" x2="193.08" y2="4375.51"/><line class="cls-1" x1="280.65" y1="4494.83" x2="193.08" y2="4494.83"/><line class="cls-1" x1="280.65" y1="4614.16" x2="193.08" y2="4614.16"/><path class="cls-1" d="M133.43,3887.93h-80A9.43,9.43,0,0,1,44,3878.5V1218.82a9.44,9.44,0,0,1,9.43-9.44h80"/><line class="cls-1" x1="133.43" y1="2669.48" x2="43.98" y2="2669.48"/><line class="cls-1" x1="132.42" y1="3182.16" x2="43.98" y2="3182.16"/><line class="cls-1" x1="43.98" y1="2542.52" x2="15.19" y2="2542.52"/><path class="cls-2" d="M15.19,27.38A12.19,12.19,0,1,1,27.38,15.19,12.21,12.21,0,0,1,15.19,27.38Z"/><path class="cls-3" d="M15.19,6A9.19,9.19,0,1,1,6,15.19,9.18,9.18,0,0,1,15.19,6m0-6A15.19,15.19,0,1,0,30.38,15.19,15.2,15.2,0,0,0,15.19,0Z"/></svg>