<svg id="图层_1" data-name="图层 1" xmlns="http://www.w3.org/2000/svg" viewBox="0 0 1000 920"><defs><style>.cls-1,.cls-3{fill:none;stroke:#0048ff;stroke-miterlimit:10;}.cls-1,.cls-2{opacity:0.5;}.cls-4{fill:#0048ff;}.cls-5{fill:#fafbff;}</style></defs><line class="cls-1" x1="34.43" y1="521.86" x2="34.43" y2="745.29"/><line class="cls-1" x1="235.04" y1="521.86" x2="235.04" y2="647.59"/><line class="cls-1" x1="436.91" y1="521.86" x2="436.91" y2="598.74"/><line class="cls-1" x1="636.18" y1="521.86" x2="636.18" y2="696.44"/><line class="cls-1" x1="836.49" y1="521.86" x2="836.49" y2="842.09"/><g class="cls-2"><line class="cls-3" x1="495.56" y1="115.32" x2="495.56" y2="473.8"/></g><line class="cls-1" x1="495.56" y1="263.8" x2="708.02" y2="263.8"/><line class="cls-1" x1="495.56" y1="263.8" x2="371.83" y2="263.8"/><path class="cls-1" d="M286.17,195.74h80.59a5.07,5.07,0,0,1,5.07,5.07V326.23a5.07,5.07,0,0,1-5.07,5.07H286.17"/><path class="cls-1" d="M705,155H626.24a7,7,0,0,0-7,7V368.54a7,7,0,0,0,7,6.94H705"/><line class="cls-1" x1="704.96" y1="317.15" x2="619.29" y2="317.15"/><line class="cls-1" x1="704.96" y1="210.46" x2="619.29" y2="210.46"/><path class="cls-1" d="M98.1,473.8v-39a5.18,5.18,0,0,1,5.18-5.18H887.84a5.18,5.18,0,0,1,5.18,5.18v39"/><line class="cls-1" x1="296.83" y1="429.64" x2="296.83" y2="473.8"/><line class="cls-1" x1="694.29" y1="429.64" x2="694.29" y2="473.8"/><circle class="cls-4" cx="495.56" cy="113.67" r="3.57"/><path class="cls-5" d="M495.56,110.09a3.58,3.58,0,1,1-3.57,3.58,3.58,3.58,0,0,1,3.57-3.58m0-2.33a5.91,5.91,0,1,0,5.91,5.91,5.91,5.91,0,0,0-5.91-5.91Z"/><circle class="cls-4" cx="286.17" cy="195.74" r="3.57"/><path class="cls-5" d="M286.17,192.16a3.58,3.58,0,1,1-3.58,3.58,3.57,3.57,0,0,1,3.58-3.58m0-2.33a5.91,5.91,0,1,0,5.9,5.91,5.92,5.92,0,0,0-5.9-5.91Z"/><circle class="cls-4" cx="286.17" cy="331.3" r="3.57"/><path class="cls-5" d="M286.17,327.73a3.58,3.58,0,1,1-3.58,3.57,3.57,3.57,0,0,1,3.58-3.57m0-2.33a5.91,5.91,0,1,0,5.9,5.9,5.91,5.91,0,0,0-5.9-5.9Z"/><circle class="cls-4" cx="707.29" cy="154.95" r="3.57"/><path class="cls-5" d="M707.29,151.38a3.57,3.57,0,1,1-3.57,3.57,3.57,3.57,0,0,1,3.57-3.57m0-2.34A5.91,5.91,0,1,0,713.2,155a5.92,5.92,0,0,0-5.91-5.91Z"/><circle class="cls-4" cx="707.29" cy="210.46" r="3.57"/><path class="cls-5" d="M707.29,206.89a3.57,3.57,0,1,1-3.57,3.57,3.57,3.57,0,0,1,3.57-3.57m0-2.34a5.91,5.91,0,1,0,5.91,5.91,5.92,5.92,0,0,0-5.91-5.91Z"/><circle class="cls-4" cx="707.29" cy="263.8" r="3.57"/><path class="cls-5" d="M707.29,260.23a3.58,3.58,0,1,1-3.57,3.57,3.57,3.57,0,0,1,3.57-3.57m0-2.33a5.91,5.91,0,1,0,5.91,5.9,5.91,5.91,0,0,0-5.91-5.9Z"/><circle class="cls-4" cx="707.29" cy="317.15" r="3.57"/><path class="cls-5" d="M707.29,313.57a3.58,3.58,0,1,1-3.57,3.58,3.57,3.57,0,0,1,3.57-3.58m0-2.33a5.91,5.91,0,1,0,5.91,5.91,5.92,5.92,0,0,0-5.91-5.91Z"/><circle class="cls-4" cx="707.29" cy="375.48" r="3.57"/><path class="cls-5" d="M707.29,371.91a3.58,3.58,0,1,1-3.57,3.57,3.57,3.57,0,0,1,3.57-3.57m0-2.33a5.91,5.91,0,1,0,5.91,5.9,5.91,5.91,0,0,0-5.91-5.9Z"/><circle class="cls-4" cx="98.1" cy="473.8" r="3.57"/><path class="cls-5" d="M98.1,470.22a3.58,3.58,0,1,1-3.57,3.58,3.57,3.57,0,0,1,3.57-3.58m0-2.33A5.91,5.91,0,1,0,104,473.8a5.91,5.91,0,0,0-5.91-5.91Z"/><circle class="cls-4" cx="296.83" cy="473.8" r="3.57"/><path class="cls-5" d="M296.83,470.22a3.58,3.58,0,1,1-3.57,3.58,3.58,3.58,0,0,1,3.57-3.58m0-2.33a5.91,5.91,0,1,0,5.91,5.91,5.91,5.91,0,0,0-5.91-5.91Z"/><circle class="cls-4" cx="495.56" cy="473.8" r="3.57"/><path class="cls-5" d="M495.56,470.22A3.58,3.58,0,1,1,492,473.8a3.58,3.58,0,0,1,3.57-3.58m0-2.33a5.91,5.91,0,1,0,5.91,5.91,5.91,5.91,0,0,0-5.91-5.91Z"/><circle class="cls-4" cx="694.29" cy="473.8" r="3.57"/><path class="cls-5" d="M694.29,470.22a3.58,3.58,0,1,1-3.57,3.58,3.58,3.58,0,0,1,3.57-3.58m0-2.33a5.91,5.91,0,1,0,5.91,5.91,5.91,5.91,0,0,0-5.91-5.91Z"/><circle class="cls-4" cx="893.02" cy="473.8" r="3.57"/><path class="cls-5" d="M893,470.22a3.58,3.58,0,1,1-3.57,3.58,3.58,3.58,0,0,1,3.57-3.58m0-2.33a5.91,5.91,0,1,0,5.91,5.91,5.91,5.91,0,0,0-5.91-5.91Z"/></svg>