<svg id="图层_1" data-name="图层 1" xmlns="http://www.w3.org/2000/svg" viewBox="0 0 183.02 41.62"><defs><style>.cls-1{fill:#0048ff;}</style></defs><path class="cls-1" d="M8.76,30.23v-17A4.2,4.2,0,0,1,13,9h5.39L17.9,0H5.28A5.27,5.27,0,0,0,0,5.28V32.47H6.52A2.24,2.24,0,0,0,8.76,30.23Z"/><polygon class="cls-1" points="30.64 9.04 30.21 0 19.86 0 20.29 9.04 30.64 9.04"/><path class="cls-1" d="M41.62,32.47V5.28A5.28,5.28,0,0,0,36.34,0H32.17l1.55,32.47Z"/><path class="cls-1" d="M13,11a2.24,2.24,0,0,0-2.24,2.23v17a4.2,4.2,0,0,1-4.19,4.19H0v1.92a5.28,5.28,0,0,0,5.28,5.28H19.9L18.43,11Z"/><polygon class="cls-1" points="20.39 11 21.85 41.62 32.2 41.62 30.74 11 20.39 11"/><path class="cls-1" d="M34.16,41.62h2.18a5.29,5.29,0,0,0,5.28-5.28V34.42h-7.8Z"/><path class="cls-1" d="M75,17.85H66.48v3.52c0,1.1-.28,1.66-1.16,1.94a14,14,0,0,1-4,.32,8.68,8.68,0,0,0-.84-1.91c1.51,0,3,0,3.46,0s.52-.11.52-.41V17.85H56.12V16h8.32V14.54a19.82,19.82,0,0,0,3.18-1.62H59.79V11.18H69.88l.41-.11,1.29,1a20.89,20.89,0,0,1-5.1,3.25V16H75Zm-16.67-6H56.48V7.44h3.4a14.69,14.69,0,0,0-1.7-2.52l1.7-.77a14.39,14.39,0,0,1,2,2.86L61,7.44h4.26a16.3,16.3,0,0,0-1.51-3l1.76-.67A13.4,13.4,0,0,1,67.23,7l-1.18.47h3.18a19.12,19.12,0,0,0,2-3.35l2,.68c-.61.91-1.29,1.87-1.94,2.67h3.33v4.41h-2V9.2H58.35Z"/><path class="cls-1" d="M96.6,21.09V23H77.51V21.09H86V16.15H79.89V14.23H86V9.93H81.25a19.25,19.25,0,0,1-2.13,3.34,12.35,12.35,0,0,0-1.83-1.21,18.46,18.46,0,0,0,3.89-7.78l2.07.47C82.93,5.85,82.54,7,82.13,8H86V4h2.07V8h7.48V9.93H88.09v4.3h6.68v1.92H88.09v4.94Z"/><path class="cls-1" d="M109.15,12.34a3.73,3.73,0,0,0-.3-.43,4.7,4.7,0,0,1,0,.54c-.19,3.63-.43,5.12-.9,5.68a2.1,2.1,0,0,1-1.31.62,19.44,19.44,0,0,1-2.18,0,4.61,4.61,0,0,0-.51-1.7,16.45,16.45,0,0,0,1.76.11c.3,0,.47,0,.6-.22s.43-1.22.56-3.48h-4.1v7.22c0,.84.19,1,1.22,1h3.38c.92,0,1.09-.45,1.2-2.88a4.65,4.65,0,0,0,1.74.75c-.23,3-.77,3.85-2.79,3.85h-3.74c-2.26,0-2.93-.54-2.93-2.69V12.06c-.34.28-.66.56-1,.84a8.92,8.92,0,0,0-1.44-1.44,18.16,18.16,0,0,0,6-7.5l1.83.58c-.13.32-.28.6-.43.9A51,51,0,0,1,110.59,11Zm-.43-.62a57.17,57.17,0,0,0-3.8-4.65,22.76,22.76,0,0,1-3.72,4.65Zm4.5,6.64H111.3V6.43h1.92Zm4.19-14V21.2c0,1.23-.3,1.78-1.08,2.09a12.21,12.21,0,0,1-4,.36,8.56,8.56,0,0,0-.68-1.93c1.41.06,2.81.06,3.22,0s.58-.15.58-.56V4.32Z"/><path class="cls-1" d="M123.64,17.39a13.29,13.29,0,0,1-2.19,4,11.38,11.38,0,0,0-1.33-1A9.21,9.21,0,0,0,122,17Zm2.67-1.11v5.09c0,.86-.15,1.34-.69,1.59a5.71,5.71,0,0,1-2.43.33,6,6,0,0,0-.54-1.68c.69,0,1.34,0,1.57,0s.28-.06.28-.28V16.28h-4.1v-1.7h4.1v-2h-4.23V10.94h2.36a11.07,11.07,0,0,0-.77-2.68l1.61-.41a10.82,10.82,0,0,1,.86,2.77l-1.2.32h3a25.37,25.37,0,0,0,1.06-3.11l1.85.38c-.37.95-.76,1.94-1.1,2.73h2.51v1.68h-4.1v2h3.8v1.7Zm3.76-8.47h-9.46V6.15h3.94c-.24-.6-.52-1.29-.78-1.83l1.76-.45a21.14,21.14,0,0,1,1.06,2.28h3.48Zm-1.78,9.05a17.28,17.28,0,0,1,1.78,3.22l-1.4.84A21.83,21.83,0,0,0,127,17.57Zm11.54-3.92h-2.17V23.61h-2V12.94H133v.46c0,3.07-.28,7.35-2.19,10.06a6.77,6.77,0,0,0-1.53-1.19c1.7-2.51,1.85-6.1,1.85-8.87V6a32.63,32.63,0,0,0,6.58-1.74l1.59,1.46A35.13,35.13,0,0,1,133,7.33V11.1h6.88Z"/><path class="cls-1" d="M160.17,7.72V18h-2.09V16.84h-5.59v6.83h-2.08V16.84h-5.57V18.1h-2V7.72h7.57V4h2.08V7.72Zm-9.76,7.16V9.68h-5.57v5.2Zm7.67,0V9.68h-5.59v5.2Z"/><path class="cls-1" d="M167,11.78a46.84,46.84,0,0,1-1.76,8.62l-2-.83a36.28,36.28,0,0,0,1.81-8.15Zm3.7-1.8V20.23c0,1,.24,1.19,1.38,1.19h3.63c1.23,0,1.42-.71,1.57-4.26a6.18,6.18,0,0,0,1.87.86c-.24,4-.82,5.27-3.31,5.27h-4c-2.51,0-3.22-.69-3.22-3.06V10Zm.17-5.44a38.82,38.82,0,0,1,5.87,4.6l-1.48,1.53a37.61,37.61,0,0,0-5.74-4.8Zm9.31,6.25a38.13,38.13,0,0,1,2.84,8l-2,.84a38.38,38.38,0,0,0-2.69-8.1Z"/><path class="cls-1" d="M55.21,37.06l.69-.8a2.89,2.89,0,0,0,2,.88c.89,0,1.4-.43,1.4-1s-.51-.89-1.19-1.19l-1-.44a2.12,2.12,0,0,1-1.5-1.94,2.19,2.19,0,0,1,2.43-2,3.18,3.18,0,0,1,2.24.93l-.61.75A2.38,2.38,0,0,0,58,31.49c-.75,0-1.25.37-1.25,1s.6.87,1.2,1.12l1,.43a2.06,2.06,0,0,1,1.51,2c0,1.19-1,2.15-2.6,2.15A3.69,3.69,0,0,1,55.21,37.06Z"/><path class="cls-1" d="M61.93,36.21v-2.8h-.81v-.86l.86-.06L62.11,31h1v1.53h1.44v.92H63.08v2.81c0,.66.24,1,.81,1a1.46,1.46,0,0,0,.59-.14l.21.86a3.52,3.52,0,0,1-1.08.2C62.36,38.15,61.93,37.38,61.93,36.21Z"/><path class="cls-1" d="M65.66,36V32.49h1.15v3.34c0,1,.27,1.33.93,1.33s.86-.25,1.32-.83V32.49h1.16V38h-.94l-.09-.83h0a2.34,2.34,0,0,1-1.81,1C66.17,38.15,65.66,37.38,65.66,36Z"/><path class="cls-1" d="M71.59,35.26c0-1.8,1.13-2.91,2.37-2.91a2.16,2.16,0,0,1,1.49.62l0-.91V30h1.15v8h-.94l-.1-.62h0a2.35,2.35,0,0,1-1.61.75C72.48,38.15,71.59,37.09,71.59,35.26Zm3.81,1.26v-2.7a1.73,1.73,0,0,0-1.22-.51c-.77,0-1.4.74-1.4,1.93s.49,2,1.36,2A1.66,1.66,0,0,0,75.4,36.52Z"/><path class="cls-1" d="M77.9,35.26a2.68,2.68,0,0,1,2.52-2.91c1.47,0,2.25,1,2.25,2.62a3.09,3.09,0,0,1,0,.59H79a1.68,1.68,0,0,0,1.71,1.69,2.38,2.38,0,0,0,1.32-.42l.4.74a3.37,3.37,0,0,1-1.87.58A2.66,2.66,0,0,1,77.9,35.26Zm3.78-.5c0-.95-.44-1.51-1.24-1.51A1.51,1.51,0,0,0,79,34.76Z"/><path class="cls-1" d="M84,32.49h.94l.09.76h0a2.66,2.66,0,0,1,1.83-.9c1.18,0,1.7.78,1.7,2.19V38H87.41V34.68c0-1-.29-1.34-.94-1.34a1.93,1.93,0,0,0-1.36.76V38H84Z"/><path class="cls-1" d="M90.42,36.21v-2.8h-.81v-.86l.86-.06L90.6,31h1v1.53H93v.92H91.57v2.81c0,.66.24,1,.81,1a1.46,1.46,0,0,0,.59-.14l.21.86a3.52,3.52,0,0,1-1.08.2C90.85,38.15,90.42,37.38,90.42,36.21Z"/><path class="cls-1" d="M96.58,30.62h1.16V38H96.58Z"/><path class="cls-1" d="M99.58,32.49h1l.09.76h0a2.62,2.62,0,0,1,1.83-.9c1.18,0,1.7.78,1.7,2.19V38H103V34.68c0-1-.28-1.34-.93-1.34a1.89,1.89,0,0,0-1.36.76V38H99.58Z"/><path class="cls-1" d="M105.85,32.49h1l.09.76h0a2.64,2.64,0,0,1,1.83-.9c1.18,0,1.7.78,1.7,2.19V38h-1.16V34.68c0-1-.28-1.34-.93-1.34a1.91,1.91,0,0,0-1.36.76V38h-1.15Z"/><path class="cls-1" d="M111.73,35.26a2.62,2.62,0,1,1,5.21,0,2.62,2.62,0,1,1-5.21,0Zm4,0c0-1.17-.55-2-1.42-2s-1.41.79-1.41,2,.54,2,1.41,2S115.76,36.43,115.76,35.26Z"/><path class="cls-1" d="M117.55,32.49h1.19l.94,3c.15.54.33,1.1.49,1.65h0c.16-.55.33-1.11.48-1.65l.94-3h1.13L120.85,38h-1.34Z"/><path class="cls-1" d="M123.45,36.55c0-1.18,1-1.8,3.31-2,0-.64-.24-1.21-1.06-1.21a3.1,3.1,0,0,0-1.6.57l-.43-.79a4.28,4.28,0,0,1,2.23-.72c1.38,0,2,.87,2,2.34V38h-1l-.1-.63h0a2.76,2.76,0,0,1-1.76.76A1.52,1.52,0,0,1,123.45,36.55Zm3.31,0V35.23c-1.64.21-2.19.62-2.19,1.24s.37.77.86.77A2,2,0,0,0,126.76,36.59Z"/><path class="cls-1" d="M129.73,36.21v-2.8h-.8v-.86l.85-.06.13-1.53h1v1.53h1.44v.92h-1.44v2.81c0,.66.23,1,.8,1a1.51,1.51,0,0,0,.6-.14l.21.86a3.59,3.59,0,0,1-1.09.2C130.16,38.15,129.73,37.38,129.73,36.21Z"/><path class="cls-1" d="M133.37,30.77a.68.68,0,0,1,.73-.68.68.68,0,1,1-.73.68Zm.16,1.72h1.15V38h-1.15Z"/><path class="cls-1" d="M136,35.26a2.62,2.62,0,1,1,5.21,0,2.62,2.62,0,1,1-5.21,0Zm4,0c0-1.17-.55-2-1.42-2s-1.41.79-1.41,2,.54,2,1.41,2S140.05,36.43,140.05,35.26Z"/><path class="cls-1" d="M142.59,32.49h.94l.09.76h0a2.64,2.64,0,0,1,1.83-.9c1.18,0,1.7.78,1.7,2.19V38H146V34.68c0-1-.28-1.34-.93-1.34a1.91,1.91,0,0,0-1.36.76V38h-1.14Z"/><path class="cls-1" d="M150.82,34.34c0-2.41,1.46-3.86,3.33-3.86a2.88,2.88,0,0,1,2.11.93l-.64.75a2,2,0,0,0-1.45-.67c-1.27,0-2.16,1.07-2.16,2.81s.83,2.84,2.13,2.84a2.16,2.16,0,0,0,1.64-.79l.63.73a2.92,2.92,0,0,1-2.31,1.07C152.24,38.15,150.82,36.76,150.82,34.34Z"/><path class="cls-1" d="M157.22,35.26a2.68,2.68,0,0,1,2.52-2.91c1.47,0,2.25,1,2.25,2.62a3.09,3.09,0,0,1-.05.59h-3.59a1.68,1.68,0,0,0,1.71,1.69,2.35,2.35,0,0,0,1.32-.42l.4.74a3.34,3.34,0,0,1-1.87.58A2.66,2.66,0,0,1,157.22,35.26Zm3.78-.5c0-.95-.43-1.51-1.24-1.51a1.51,1.51,0,0,0-1.42,1.51Z"/><path class="cls-1" d="M163.29,32.49h.94l.09.76h0a2.66,2.66,0,0,1,1.83-.9c1.18,0,1.7.78,1.7,2.19V38h-1.15V34.68c0-1-.29-1.34-.94-1.34a1.93,1.93,0,0,0-1.36.76V38h-1.14Z"/><path class="cls-1" d="M169.74,36.21v-2.8h-.81v-.86l.86-.06.13-1.53h1v1.53h1.43v.92H170.9v2.81c0,.66.23,1,.8,1a1.46,1.46,0,0,0,.59-.14l.22.86a3.64,3.64,0,0,1-1.09.2C170.17,38.15,169.74,37.38,169.74,36.21Z"/><path class="cls-1" d="M173.15,35.26a2.68,2.68,0,0,1,2.52-2.91c1.47,0,2.25,1,2.25,2.62a3.09,3.09,0,0,1,0,.59h-3.59A1.68,1.68,0,0,0,176,37.25a2.38,2.38,0,0,0,1.32-.42l.4.74a3.37,3.37,0,0,1-1.87.58A2.66,2.66,0,0,1,173.15,35.26Zm3.78-.5c0-.95-.44-1.51-1.24-1.51a1.51,1.51,0,0,0-1.42,1.51Z"/><path class="cls-1" d="M179.22,32.49h.94l.09,1h0a1.91,1.91,0,0,1,1.57-1.13,1.37,1.37,0,0,1,.62.12l-.21,1a1.42,1.42,0,0,0-.55-.1c-.45,0-1,.32-1.35,1.19V38h-1.14Z"/></svg>